<svg width="169" height="90" viewBox="0 0 169 90" fill="none" xmlns="http://www.w3.org/2000/svg">
<mask id="mask0_10_94" style="mask-type:luminance" maskUnits="userSpaceOnUse" x="0" y="0" width="169" height="90">
<path d="M-6.10352e-05 90H169V0H-6.10352e-05V90Z" fill="white"/>
</mask>
<g mask="url(#mask0_10_94)">
<path d="M106.622 1.59895C104.058 0.996612 101.481 0.425404 98.8172 0.0372658C98.7173 0.0219059 98.6054 0.0156794 98.5059 -9.53674e-05C94.7217 2.78786 91.2362 5.86474 88.0995 9.17077C91.5725 8.66183 95.1203 8.33887 98.7423 8.20852C111.389 7.74607 123.415 9.81379 134.269 13.7533C126.439 8.37291 116.991 4.13202 106.622 1.59895Z" fill="#F2F2F2"/>
<path d="M100.983 29.3751C115.298 22.6352 130.286 19.7883 144.427 20.4093C132.253 15.0447 118.28 12.2223 103.51 12.7565C96.2283 13.0235 89.1949 14.0916 82.5349 15.8488C79.2113 20.3005 76.4665 25.0877 74.3813 30.126C77.593 33.2777 81.0972 36.2449 84.8689 38.9806C89.7863 35.3512 95.1697 32.1161 100.983 29.3751Z" fill="#F2F2F2"/>
<path d="M82.535 15.8488C76.996 17.3079 71.7054 19.2449 66.7261 21.6044C71.7674 28.0122 77.8424 33.8891 84.8633 38.9806H84.8691C81.0973 36.242 77.5932 33.2777 74.3811 30.1265C76.4663 25.0906 79.2115 20.3034 82.535 15.8488Z" fill="#F2F2F2"/>
<path d="M84.8754 38.9836C81.1036 36.2517 77.5928 33.2773 74.3811 30.1261C71.4 37.3227 69.7759 45.0311 69.7509 53.0288C74.1198 47.9091 79.1865 43.1904 84.8754 38.9836Z" fill="#F2F2F2"/>
<path d="M156.066 82.4872C155.891 82.4909 155.717 82.4967 155.537 82.4967C148.273 82.4967 143.008 77.8586 143.008 71.4694V71.3266C143.008 65.214 148.286 60.4268 155.02 60.4268C155.381 60.4268 155.73 60.4388 156.066 60.4579V53.1152C155.754 53.1028 155.431 53.1028 155.107 53.1028C141.912 53.1028 131.954 60.9918 131.954 71.4694V71.6031C131.954 81.8234 142.049 89.8298 154.939 89.8298C155.331 89.8298 155.692 89.8203 156.066 89.8107V82.4872Z" fill="#F2F2F2"/>
<path d="M22.6632 67.101C14.8767 65.4439 13.7814 64.6489 13.7814 62.1935V62.0818C13.7814 60.2714 15.7792 58.831 19.5726 58.831C21.508 58.831 24.0356 59.3561 25.8095 60.0112V52.1807C24.16 51.8955 21.627 51.5692 19.7037 51.5692C10.4982 51.5692 3.94093 56.055 3.94093 62.839V62.9415C3.94093 70.3581 9.78831 72.4382 18.8665 74.3598C26.3946 75.9618 27.1041 77.0295 27.1041 79.1126V79.2184C27.1041 81.4069 24.6577 82.7391 20.603 82.7391C15.4555 82.7391 12.0445 80.9789 7.99273 78.2026L2.13287 84.021C7.53874 88.0223 13.5888 90.0004 20.4099 90.0004C30.1289 90.0004 36.9504 85.8371 36.9504 78.4176V78.3114C36.9504 71.7981 31.7967 69.0762 22.6632 67.101Z" fill="#F2F2F2"/>
<path d="M52.8834 56.9185C42.7762 56.9185 35.7175 64.1209 35.7175 72.8604V72.9721C35.7175 82.3439 43.4233 88.8015 53.8543 88.8015C54.1535 88.8015 55.1243 88.7617 55.4231 88.755V81.7731C55.1742 81.7826 54.2404 81.8291 53.9795 81.8291C49.5728 81.8291 46.4664 79.7772 45.4898 75.831H69.4456C69.5018 75.027 69.57 74.5147 69.57 73.655V73.5462C69.57 64.8598 64.4729 56.9185 52.8834 56.9185ZM45.3653 70.4075C46.1427 66.4647 48.8009 63.888 52.8834 63.888C57.0226 63.888 59.618 66.5178 60.2031 70.4075H45.3653Z" fill="#F2F2F2"/>
<path d="M100.809 72.0217C100.809 63.7359 95.7301 57.2691 84.9875 57.2691C74.2319 57.2691 69.1531 63.7359 69.1531 72.0217V88.2372H79.106V71.4231C79.2862 68.3554 80.4933 64.733 84.9875 64.733C89.4683 64.733 90.7758 68.3554 90.9501 71.4231V88.2372H100.809V72.0217Z" fill="#F2F2F2"/>
<path d="M123.04 77.3386C122.183 81.8161 117.55 82.4869 116.5 82.5421C109.007 82.9361 108.741 77.8251 111.259 76.268C114.646 74.1741 123.069 75.3514 123.069 75.3514C123.069 75.6544 123.15 76.417 123.04 77.3386ZM116.992 57.0927C116.556 57.0927 115.05 57.0985 114.638 57.111V64.5217C116.556 64.54 119.182 64.8625 120.352 65.4777C122.071 66.3806 122.963 67.902 123.006 69.9627C120.661 69.6883 118.003 69.5015 115.698 69.4426C106.298 69.2018 101.649 72.3027 100.716 77.2659C100.698 77.3585 100.681 77.4527 100.665 77.5474C100.66 77.5793 100.655 77.6113 100.65 77.6437C100.577 78.1178 100.535 78.6155 100.535 79.1435V79.2556C100.535 85.3218 105.912 88.634 112.448 88.634C117.247 88.634 120.551 87.0852 122.941 84.7443V88.2741H132.464V70.2898C132.464 62.0003 127.734 57.0927 116.992 57.0927Z" fill="#F2F2F2"/>
</g>
</svg>
