<svg width="64" height="64" viewBox="0 0 64 64" fill="none" xmlns="http://www.w3.org/2000/svg">
<path d="M64 32C64 49.6774 49.6774 64 32 64C14.3226 64 0 49.6774 0 32C0 14.3226 14.3226 0 32 0C49.6774 0 64 14.3226 64 32ZM45.471 28.271L36.129 38.0129V14.4516C36.129 12.7355 34.7484 11.3548 33.0323 11.3548H30.9677C29.2516 11.3548 27.871 12.7355 27.871 14.4516V38.0129L18.529 28.271C17.329 27.0194 15.329 26.9935 14.1032 28.2194L12.6968 29.6387C11.4839 30.8516 11.4839 32.8129 12.6968 34.0129L29.8064 51.1355C31.0194 52.3484 32.9806 52.3484 34.1806 51.1355L51.3032 34.0129C52.5161 32.8 52.5161 30.8387 51.3032 29.6387L49.8968 28.2194C48.671 26.9935 46.671 27.0194 45.471 28.271Z" fill="#F2F2F2"/>
</svg>
