<svg width="41" height="42" viewBox="0 0 41 42" fill="none" xmlns="http://www.w3.org/2000/svg">
<g clip-path="url(#clip0_10_182)">
<path d="M37.4766 38.9375H35.875V2.42188C35.875 1.36044 35.0146 0.5 33.9531 0.5H7.04688C5.98544 0.5 5.125 1.36044 5.125 2.42188V38.9375H3.52344C2.99276 38.9375 2.5625 39.3678 2.5625 39.8984V41.5H38.4375V39.8984C38.4375 39.3678 38.0072 38.9375 37.4766 38.9375ZM12.8125 6.58594C12.8125 6.05526 13.2428 5.625 13.7734 5.625H16.9766C17.5072 5.625 17.9375 6.05526 17.9375 6.58594V9.78906C17.9375 10.3197 17.5072 10.75 16.9766 10.75H13.7734C13.2428 10.75 12.8125 10.3197 12.8125 9.78906V6.58594ZM12.8125 14.2734C12.8125 13.7428 13.2428 13.3125 13.7734 13.3125H16.9766C17.5072 13.3125 17.9375 13.7428 17.9375 14.2734V17.4766C17.9375 18.0072 17.5072 18.4375 16.9766 18.4375H13.7734C13.2428 18.4375 12.8125 18.0072 12.8125 17.4766V14.2734ZM16.9766 26.125H13.7734C13.2428 26.125 12.8125 25.6947 12.8125 25.1641V21.9609C12.8125 21.4303 13.2428 21 13.7734 21H16.9766C17.5072 21 17.9375 21.4303 17.9375 21.9609V25.1641C17.9375 25.6947 17.5072 26.125 16.9766 26.125ZM23.0625 38.9375H17.9375V32.2109C17.9375 31.6803 18.3678 31.25 18.8984 31.25H22.1016C22.6322 31.25 23.0625 31.6803 23.0625 32.2109V38.9375ZM28.1875 25.1641C28.1875 25.6947 27.7572 26.125 27.2266 26.125H24.0234C23.4928 26.125 23.0625 25.6947 23.0625 25.1641V21.9609C23.0625 21.4303 23.4928 21 24.0234 21H27.2266C27.7572 21 28.1875 21.4303 28.1875 21.9609V25.1641ZM28.1875 17.4766C28.1875 18.0072 27.7572 18.4375 27.2266 18.4375H24.0234C23.4928 18.4375 23.0625 18.0072 23.0625 17.4766V14.2734C23.0625 13.7428 23.4928 13.3125 24.0234 13.3125H27.2266C27.7572 13.3125 28.1875 13.7428 28.1875 14.2734V17.4766ZM28.1875 9.78906C28.1875 10.3197 27.7572 10.75 27.2266 10.75H24.0234C23.4928 10.75 23.0625 10.3197 23.0625 9.78906V6.58594C23.0625 6.05526 23.4928 5.625 24.0234 5.625H27.2266C27.7572 5.625 28.1875 6.05526 28.1875 6.58594V9.78906Z" fill="#F2F2F2"/>
</g>
<defs>
<clipPath id="clip0_10_182">
<rect width="41" height="41" fill="white" transform="translate(0 0.5)"/>
</clipPath>
</defs>
</svg>
