<svg width="41" height="42" viewBox="0 0 41 42" fill="none" xmlns="http://www.w3.org/2000/svg">
<g clip-path="url(#clip0_10_186)">
<path d="M40.2498 3.62291L37.877 1.2502C37.6391 1.01218 37.3566 0.82338 37.0456 0.694565C36.7347 0.565751 36.4014 0.499451 36.0649 0.499451C35.7283 0.499451 35.395 0.565751 35.0841 0.694565C34.7732 0.82338 34.4907 1.01218 34.2527 1.2502L30.5467 4.96022C30.236 5.27002 30.0021 5.64818 29.8636 6.06449L28.8899 8.98815L22.7831 15.0949C21.8094 14.3934 20.7411 13.8345 19.572 13.5622C16.8934 12.9392 14.2067 13.4917 12.3746 15.3239C11.6271 16.0744 11.0712 16.9937 10.7538 18.0041C10.2733 19.4904 8.89516 20.6219 7.37848 20.7636C5.48063 20.9454 3.71651 21.6805 2.36479 23.0411C-1.28998 26.6854 -0.632536 33.2518 3.8102 37.6922C8.25293 42.1325 14.8145 42.7811 18.4629 39.1392C19.8242 37.7874 20.5577 36.0241 20.7411 34.1175C20.8821 32.608 22.0136 31.2242 23.4982 30.743C24.5089 30.425 25.4283 29.8688 26.1792 29.1214C28.0106 27.2892 28.5607 24.6082 27.9409 21.9344C27.6695 20.762 27.1105 19.6922 26.4066 18.7152L32.5118 12.6101L35.4331 11.6363C35.8494 11.4978 36.2275 11.2639 36.5373 10.9533L40.2473 7.24404C40.7274 6.76391 40.9972 6.11291 40.9977 5.43397C40.9981 4.75504 40.7291 4.10368 40.2498 3.62291ZM16.6563 28.6874C15.8961 28.6874 15.153 28.4619 14.5209 28.0396C13.8888 27.6172 13.3961 27.0169 13.1052 26.3146C12.8142 25.6122 12.7381 24.8393 12.8864 24.0937C13.0347 23.3481 13.4008 22.6632 13.9384 22.1257C14.4759 21.5881 15.1608 21.222 15.9065 21.0737C16.6521 20.9254 17.4249 21.0015 18.1273 21.2925C18.8296 21.5834 19.4299 22.076 19.8523 22.7081C20.2747 23.3402 20.5001 24.0834 20.5001 24.8436C20.5001 25.863 20.0951 26.8407 19.3743 27.5616C18.6534 28.2824 17.6758 28.6874 16.6563 28.6874Z" fill="#F2F2F2"/>
</g>
<defs>
<clipPath id="clip0_10_186">
<rect width="41" height="41" fill="white" transform="translate(0 0.5)"/>
</clipPath>
</defs>
</svg>
