<svg width="41" height="41" viewBox="0 0 41 41" fill="none" xmlns="http://www.w3.org/2000/svg">
<path d="M0 33.333C0 35.465 0.751667 37.269 2.255 38.745C3.75833 40.221 5.576 40.9727 7.708 41H33.333C35.4377 41 37.2417 40.2483 38.745 38.745C40.2483 37.2417 41 35.4377 41 33.333V7.708C41 5.576 40.2483 3.75833 38.745 2.255C37.2417 0.751667 35.4377 0 33.333 0H7.708C5.576 0 3.75833 0.751667 2.255 2.255C0.751667 3.75833 0 5.576 0 7.708V14.104L5.125 10.906V7.708C5.125 6.99733 5.371 6.396 5.863 5.904C6.355 5.412 6.97 5.15233 7.708 5.125H33.333C34.0163 5.125 34.6177 5.38467 35.137 5.904C35.6563 6.42333 35.9023 7.02467 35.875 7.708V33.333C35.875 34.0437 35.629 34.645 35.137 35.137C34.645 35.629 34.0437 35.875 33.333 35.875H7.708C6.99733 35.875 6.38233 35.629 5.863 35.137C5.34367 34.645 5.09767 34.0437 5.125 33.333V30.135L0 26.937L0 33.333ZM0 20.5L10.25 28.208V23.083H20.5V17.958H10.25V12.833L0 20.5Z" fill="#F2F2F2"/>
</svg>
