<svg width="40" height="42" viewBox="0 0 40 42" fill="none" xmlns="http://www.w3.org/2000/svg">
<path d="M20 0.5C8.95161 0.5 0 9.6754 0 21C0 32.3246 8.95161 41.5 20 41.5C31.0484 41.5 40 32.3246 40 21C40 9.6754 31.0484 0.5 20 0.5ZM20 8.43548C23.9194 8.43548 27.0968 11.6923 27.0968 15.7097C27.0968 19.727 23.9194 22.9839 20 22.9839C16.0806 22.9839 12.9032 19.727 12.9032 15.7097C12.9032 11.6923 16.0806 8.43548 20 8.43548ZM20 36.871C15.2661 36.871 11.0242 34.6722 8.18548 31.2335C9.70161 28.3073 12.6694 26.2903 16.129 26.2903C16.3226 26.2903 16.5161 26.3234 16.7016 26.3813C17.75 26.7284 18.8468 26.9516 20 26.9516C21.1532 26.9516 22.2581 26.7284 23.2984 26.3813C23.4839 26.3234 23.6774 26.2903 23.871 26.2903C27.3306 26.2903 30.2984 28.3073 31.8145 31.2335C28.9758 34.6722 24.7339 36.871 20 36.871Z" fill="#F2F2F2"/>
</svg>
